<svg width="140" height="30" viewBox="0 0 140 30" fill="none" xmlns="http://www.w3.org/2000/svg">
<rect width="140" height="30" fill="white"/>
<path d="M38.25 24H33.7614V9.45455H38.4489C39.8598 9.45455 41.0672 9.74574 42.071 10.3281C43.0748 10.9058 43.8442 11.7367 44.3793 12.821C44.9143 13.9006 45.1818 15.1932 45.1818 16.6989C45.1818 18.214 44.9119 19.5185 44.3722 20.6122C43.8324 21.7012 43.0464 22.5393 42.0142 23.1264C40.982 23.7088 39.7273 24 38.25 24ZM35.5227 22.4375H38.1364C39.339 22.4375 40.3357 22.2055 41.1264 21.7415C41.9171 21.2775 42.5066 20.617 42.8949 19.7599C43.2831 18.9029 43.4773 17.8826 43.4773 16.6989C43.4773 15.5246 43.2855 14.5137 42.902 13.6662C42.5185 12.8139 41.9455 12.1605 41.1832 11.706C40.4209 11.2467 39.4716 11.017 38.3352 11.017H35.5227V22.4375ZM48.0494 24H46.2028L51.5437 9.45455H53.3619L58.7028 24H56.8562L52.5096 11.7557H52.396L48.0494 24ZM48.7312 18.3182H56.1744V19.8807H48.7312V18.3182ZM58.4737 11.017V9.45455H69.3828V11.017H64.8089V24H63.0476V11.017H58.4737ZM72.1012 24V9.45455H80.8796V11.017H73.8626V15.9318H80.4251V17.4943H73.8626V22.4375H80.9933V24H72.1012ZM83.5714 24V22.7216L91.4123 11.017H83.4862V9.45455H93.5146V10.733L85.6737 22.4375H93.5998V24H83.5714ZM108.143 16.7273C108.143 18.2614 107.866 19.5871 107.312 20.7045C106.759 21.822 105.999 22.6837 105.033 23.2898C104.067 23.8958 102.964 24.1989 101.723 24.1989C100.482 24.1989 99.3793 23.8958 98.4134 23.2898C97.4474 22.6837 96.6875 21.822 96.1335 20.7045C95.5795 19.5871 95.3026 18.2614 95.3026 16.7273C95.3026 15.1932 95.5795 13.8674 96.1335 12.75C96.6875 11.6326 97.4474 10.7708 98.4134 10.1648C99.3793 9.55871 100.482 9.25568 101.723 9.25568C102.964 9.25568 104.067 9.55871 105.033 10.1648C105.999 10.7708 106.759 11.6326 107.312 12.75C107.866 13.8674 108.143 15.1932 108.143 16.7273ZM106.439 16.7273C106.439 15.4678 106.228 14.4048 105.807 13.5384C105.39 12.6719 104.824 12.0161 104.109 11.571C103.399 11.1259 102.604 10.9034 101.723 10.9034C100.842 10.9034 100.045 11.1259 99.3295 11.571C98.6193 12.0161 98.0535 12.6719 97.6321 13.5384C97.2154 14.4048 97.0071 15.4678 97.0071 16.7273C97.0071 17.9867 97.2154 19.0497 97.6321 19.9162C98.0535 20.7827 98.6193 21.4384 99.3295 21.8835C100.045 22.3286 100.842 22.5511 101.723 22.5511C102.604 22.5511 103.399 22.3286 104.109 21.8835C104.824 21.4384 105.39 20.7827 105.807 19.9162C106.228 19.0497 106.439 17.9867 106.439 16.7273ZM122.639 9.45455V24H120.935L113.009 12.5795H112.866V24H111.105V9.45455H112.81L120.764 20.9034H120.906V9.45455H122.639ZM126.164 24V9.45455H134.942V11.017H127.925V15.9318H134.488V17.4943H127.925V22.4375H135.056V24H126.164Z" fill="black"/>
<path d="M5.5 7H25C25 7 26.5 7 26.5 8.5V25C26.5 25 26.5 26.5 25 26.5H5.5C5.5 26.5 4 26.5 4 25V8.5C4 8.5 4 7 5.5 7Z" stroke="black" stroke-width="2"/>
<path d="M10 9.25V4" stroke="black" stroke-width="2" stroke-linecap="round"/>
<path d="M20.5 9.25V4" stroke="black" stroke-width="2" stroke-linecap="round"/>
<rect x="4.24805" y="14.25" width="22" height="12" fill="black"/>
</svg>
